<?xml version="1.0" encoding="UTF-8" standalone="no"?>
<!-- Created with Inkscape (http://www.inkscape.org/) -->

<svg
   xmlns:dc="http://purl.org/dc/elements/1.1/"
   xmlns:cc="http://creativecommons.org/ns#"
   xmlns:rdf="http://www.w3.org/1999/02/22-rdf-syntax-ns#"
   xmlns:svg="http://www.w3.org/2000/svg"
   xmlns="http://www.w3.org/2000/svg"
   xmlns:sodipodi="http://sodipodi.sourceforge.net/DTD/sodipodi-0.dtd"
   xmlns:inkscape="http://www.inkscape.org/namespaces/inkscape"
   width="2126.6182"
   height="2046.871"
   id="svg2"
   version="1.1"
   inkscape:version="0.92.1 r"
   sodipodi:docname="logo-black.svg"
   inkscape:export-filename="/home/giacecco/Documents/Dico.im/Brand/logo-black.png"
   inkscape:export-xdpi="247.71001"
   inkscape:export-ydpi="247.71001">
  <defs
     id="defs4" />
  <sodipodi:namedview
     id="base"
     pagecolor="#ffffff"
     bordercolor="#666666"
     borderopacity="1.0"
     inkscape:pageopacity="0.0"
     inkscape:pageshadow="2"
     inkscape:zoom="0.27057957"
     inkscape:cx="884.01465"
     inkscape:cy="851.37996"
     inkscape:document-units="px"
     inkscape:current-layer="layer2"
     showgrid="false"
     width="744.09px"
     height="837.11px"
     inkscape:window-width="1920"
     inkscape:window-height="1034"
     inkscape:window-x="0"
     inkscape:window-y="27"
     inkscape:window-maximized="1"
     fit-margin-top="0"
     fit-margin-left="0"
     fit-margin-right="0"
     fit-margin-bottom="0" />
  <metadata
     id="metadata7">
    <rdf:RDF>
      <cc:Work
         rdf:about="">
        <dc:format>image/svg+xml</dc:format>
        <dc:type
           rdf:resource="http://purl.org/dc/dcmitype/StillImage" />
        <dc:title />
      </cc:Work>
    </rdf:RDF>
  </metadata>
  <g
     inkscape:groupmode="layer"
     id="layer2"
     inkscape:label="Reference logo"
     style="display:inline"
     transform="translate(-521.13018,650.91726)">
    <g
       id="g4543">
      <rect
         y="-193.22763"
         x="972.01416"
         height="1175.255"
         width="1256.562"
         id="rect4539"
         style="opacity:1;fill:#ffffff;fill-opacity:1;stroke:none;stroke-width:2.64899993;stroke-miterlimit:4;stroke-dasharray:none;stroke-dashoffset:0;stroke-opacity:1" />
      <path
         inkscape:connector-curvature="0"
         id="rect3070"
         d="m 2246.8906,-650.91726 c -9.3475,-0.0229 -18.8207,0.65761 -28.3604,2.08333 L 679.4406,-418.81518 c -101.75734,15.20775 -171.43483,109.36975 -156.22709,211.12708 l 216.00624,1445.3313 c 15.20775,101.7573 109.36975,171.4347 211.12709,156.2271 L 2489.4385,1163.8515 c 101.7574,-15.2077 171.4348,-109.3697 156.2271,-211.12705 L 2429.6593,-492.60684 c -13.7819,-92.21759 -92.41,-158.08923 -182.7687,-158.31042 z m -737.8625,551.039585 c 3.0496,0.03467 6.11,0.476203 9.1792,1.325003 5.1282,1.064608 9.7498,3.120725 13.8666,6.166667 4.3342,2.752469 7.9969,6.258357 10.9875,10.518752 2.9523,4.00513 4.7923,8.4376 5.5188,13.297909 0.7646,5.116683 0.3392,10.149312 -1.275,15.09792 -1.3966,4.655051 -3.7639,8.932331 -7.1042,12.831253 -3.0845,3.861163 -6.7781,7.159222 -11.0771,9.89375 -4.337,2.479136 -8.8077,4.062037 -13.4125,4.749994 -5.1165,0.764896 -10.1491,0.339424 -15.0979,-1.274997 -4.693,-1.652203 -8.9703,-4.019467 -12.8312,-7.104171 -3.8609,-3.084213 -7.0295,-6.795936 -9.5084,-11.133333 -2.5172,-4.592704 -4.1402,-9.318315 -4.8666,-14.179168 -0.7264,-4.86032 -0.5,-9.472299 0.6791,-13.833333 1.3966,-4.654518 3.4014,-8.74607 6.0125,-12.274998 2.8669,-3.56657 6.212,-6.551413 10.0375,-8.954165 4.0813,-2.440405 8.5539,-4.023275 13.4146,-4.750005 1.8227,-0.272288 3.6473,-0.397878 5.4771,-0.377078 z m -141.1771,49.19792 c 5.6244,0.0096 11.0722,0.143595 16.3417,0.40208 10.7943,0.479318 18.7237,1.908224 23.7875,4.289579 6.5336,3.469888 12.6571,8.571744 18.3708,15.302091 5.7133,6.730869 10.1284,13.524405 13.2458,20.381248 1.52,3.1729917 3.0717,8.301237 4.6542,15.3874983 1.5437,6.8309227 3.0357,14.1934507 4.4771,22.0854187 1.4407,7.892427 2.716,15.548085 3.825,22.966667 1.3643,7.380746 2.3325,12.989973 2.9062,16.827082 1.1085,7.418976 2.2743,15.22016 3.498,23.406251 1.2231,8.186411 1.4943,16.12414 0.8125,23.81041 -0.4382,5.81934 -1.0987,11.01761 -1.9834,15.59584 -0.9235,4.32265 -2.2686,8.44745 -4.0354,12.37292 -1.8056,3.66985 -4.1418,7.2874 -7.0083,10.85416 -2.9054,3.31113 -6.5791,6.73674 -11.0188,10.27708 -1.3823,1.25277 -5.2644,3.27155 -11.6479,6.05626 -6.4221,2.52904 -14.4507,5.68995 -24.0833,9.48332 -9.3773,3.75529 -20.0135,7.82962 -31.9104,12.22293 -11.6414,4.3552 -23.6665,8.7677 -36.075,13.23749 -12.1913,4.17582 -24.364,8.47884 -36.5167,12.91042 -11.9355,4.13758 -22.8669,7.99501 -32.7938,11.57084 -9.7095,3.28184 -18.0289,6.22581 -24.9625,8.83124 -6.716,2.31139 -11.2067,3.76678 -13.4708,4.36667 -11.3456,-46.16514 -22.3788,-91.98401 -33.0979,-137.45834 -10.7193,-45.474003 -20.6187,-91.595048 -29.7,-138.360413 21.6036,-2.443798 43.0972,-4.739254 64.4833,-6.889579 21.3478,-2.405547 43.0092,-4.466112 64.9834,-6.181248 5.7045,-0.329195 13.9864,-0.913472 24.8458,-1.752085 11.1148,-0.876246 22.6716,-1.425931 34.6687,-1.649995 5.9795,-0.239659 11.7798,-0.355253 17.4042,-0.345835 z m 206.2104,44.9937497 c 0.7471,13.749856 1.7314,27.3328003 2.9521,40.7499943 1.2206,13.417526 2.4418,26.834848 3.6625,40.252086 1.3088,15.75809 1.8307,31.503955 1.5667,47.235415 -0.011,15.69341 -0.4012,31.44409 -1.1771,47.25208 l -57.7917,14.9125 c -1.2234,-8.18621 -2.4295,-16.24452 -3.6146,-24.17499 -0.9295,-7.96861 -2.0057,-16.04494 -3.2291,-24.23126 -3.1351,-20.9772 -6.6539,-41.897703 -10.5563,-62.760412 -3.9025,-20.862443 -7.8037,-41.724747 -11.7062,-62.587499 13.4819,-2.5377703 26.6685,-5.2933223 39.5625,-8.2666663 13.1496,-3.0111787 26.5932,-5.8048214 40.3312,-8.381248 z M 1319.0802,22.141077 c -0.7996,0.0096 -1.6369,0.03147 -2.5146,0.06453 -7.0602,0.0096 -14.7027,0.497184 -22.9271,1.464586 -8.2628,0.712032 -15.9767,1.602635 -23.1396,2.672918 -7.2013,0.814922 -11.8243,1.375605 -13.8708,1.681248 l -15.7333,2.350005 c 5.0285,19.648341 9.7635,39.07888 14.2041,58.291669 4.6582,18.919047 9.1179,38.260197 13.3792,58.022917 4.8223,-0.98213 11.6346,-2.65306 20.4354,-5.01458 9.0183,-2.65537 18.125,-5.5862 27.3229,-8.79167 9.1593,-3.46105 17.6217,-7.21033 25.3875,-11.24792 7.7273,-4.29317 13.0759,-8.75481 16.0459,-13.38333 2.3551,-3.49027 3.5414,-6.93522 3.5562,-10.337502 0.232,-3.696043 0.041,-7.590048 -0.5708,-11.683339 -0.4208,-2.813856 -0.9877,-5.73696 -1.7021,-8.768746 -0.4972,-3.325494 -1.0842,-6.376107 -1.7604,-9.152086 -1.1235,-4.01648 -2.5207,-8.124629 -4.1938,-12.320832 -1.4559,-4.489877 -3.2576,-8.665237 -5.4041,-12.529162 -2.1851,-4.119339 -4.6959,-7.797814 -7.5334,-11.035424 -2.876,-3.493003 -6.1873,-6.399435 -9.9333,-8.716662 -1.7678,-1.108672 -5.4509,-1.630656 -11.0479,-1.566666 z m 426.977,203.381253 c 5.8922,0.0512 11.2403,0.40366 16.0459,1.05833 6.6246,0.57939 11.132,1.86624 13.5229,3.8625 3.8608,3.08472 7.3493,8.05566 10.4666,14.9125 3.1168,6.85736 5.799,14.30232 8.0459,22.33541 2.464,7.7395 4.4171,15.55594 5.8583,23.44792 1.6584,7.59835 2.8504,13.82712 3.5771,18.68751 0.3056,2.04676 0.6126,4.0932 0.9187,6.13957 0.2674,1.79093 0.4268,3.72999 0.4771,5.81459 0.2792,3.61992 0.5182,9.5985 0.7188,17.93749 0.1999,8.33934 0.074,17.1205 -0.3791,26.34168 -0.4911,8.96567 -1.4611,17.34899 -2.9104,25.14999 -1.4497,7.80123 -3.5571,12.95308 -6.3209,15.45834 -1.3823,1.25279 -6.4926,2.93199 -15.3313,5.03749 -8.5835,2.06747 -19.2135,4.44184 -31.8896,7.12088 -12.4208,2.64085 -26.0098,5.32512 -40.7708,8.05408 -14.7612,2.72928 -28.8827,5.36426 -42.3645,7.90218 -13.2647,2.24395 -24.9951,4.25654 -35.1896,6.0416 -9.9389,1.74699 -16.5702,2.86976 -19.8959,3.36672 -1.5349,0.22944 -4.221,0.63072 -8.0583,1.20416 -3.5816,0.53526 -7.4193,1.10912 -11.5125,1.72075 -4.1315,0.35605 -8.0074,0.67275 -11.6271,0.95211 -3.6197,0.27946 -6.2345,0.27818 -7.8458,0 -3.7727,-0.74379 -7.6606,-2.25451 -11.6625,-4.53334 -4.0403,-2.5345 -7.8637,-5.36266 -11.4688,-8.48544 -3.6432,-3.37834 -7.0309,-6.79488 -10.1625,-10.24992 -2.9141,-3.74901 -5.1497,-7.33802 -6.7083,-10.76669 -1.1881,-2.69925 -2.4576,-6.82541 -3.8104,-12.37709 -1.391,-5.8073 -2.6745,-11.76092 -3.8479,-17.8625 -1.2117,-6.35714 -2.3836,-12.45839 -3.5188,-18.30417 -0.8793,-5.88371 -1.5494,-10.36125 -2.0083,-13.43124 -0.7264,-4.86044 -1.5921,-11.52995 -2.5979,-20.01042 -1.0441,-8.73597 -1.5951,-17.67784 -1.6542,-26.82291 -0.059,-9.14469 0.4883,-17.7269 1.6437,-25.74584 1.3731,-8.31251 4.1333,-14.3459 8.2792,-18.10417 1.8555,-1.5847 5.5207,-3.31036 10.9958,-5.175 5.4751,-1.86414 11.9922,-3.75405 19.5521,-5.66874 7.5599,-1.91418 15.6696,-3.64819 24.3292,-5.20417 8.6213,-1.81128 17.0241,-3.32839 25.2105,-4.55209 8.4038,-1.51724 16.1889,-2.81253 23.352,-3.88333 7.1628,-1.07023 12.9377,-1.80143 17.325,-2.19584 3.8754,-0.3174 9.4132,-0.88502 16.6146,-1.7 7.1629,-1.07024 15.1116,-2.12646 23.8479,-3.17082 8.9918,-1.08205 18.2782,-1.94634 27.8583,-2.59375 9.5417,-0.90269 18.4814,-1.45581 26.8208,-1.65626 2.0848,-0.05 4.1111,-0.065 6.075,-0.0479 z m -329.5895,2.74375 c 11.036,0.018 21.9636,0.78925 32.7833,2.31041 0.5204,6.98394 1.1872,14.07619 2.0021,21.27709 0.7762,6.94568 1.6822,13.8702 2.7146,20.77708 2.485,16.62858 5.3714,33.32872 8.6625,50.09792 -12.1622,-2.62824 -24.6432,-3.90119 -37.4459,-3.81876 -12.8412,-0.17293 -25.4021,0.65881 -37.6812,2.49375 -2.5584,0.38255 -6.2286,1.19134 -11.0125,2.42917 -4.8226,0.98247 -10.248,2.31725 -16.2729,4.00209 -6.0633,1.42944 -12.3434,3.15164 -18.8417,5.16874 -6.2427,1.97932 -12.064,4.15752 -17.4625,6.53334 -5.3987,2.37624 -10.1195,4.91202 -14.1625,7.60833 -3.7873,2.65848 -6.1483,5.23371 -7.0833,7.72708 -0.7175,2.19968 -1.1728,5.27527 -1.3667,9.22708 0.024,3.65814 0.085,7.57227 0.1854,11.74168 0.3559,4.13153 0.6927,8.13504 1.0104,12.01041 0.5735,3.83747 1.0329,6.90818 1.3771,9.21042 0.344,2.30254 1.2873,6.86946 2.8313,13.7 1.5439,6.8308 3.293,14.15315 5.2458,21.96872 1.9144,7.56011 3.8604,14.46176 5.8396,20.70422 2.2348,6.20437 4.0679,9.72213 5.5,10.55413 1.3937,0.57643 3.5165,0.78155 6.3687,0.61664 3.0699,-0.45867 5.1184,-0.76363 6.1417,-0.91659 12.5352,-1.87338 25.8693,-4.51946 40.0042,-7.93962 14.1347,-3.42006 28.3406,-7.24288 42.6166,-11.4688 14.4934,-4.51968 28.7305,-9.00224 42.7125,-13.44576 13.9434,-4.6991 26.8833,-9.11648 38.8188,-13.25419 l 8.5625,59.91872 c -11.424,4.06123 -22.74,7.97472 -33.9458,11.74165 -11.2063,3.76715 -22.5786,7.29814 -34.1167,10.59168 -12.0501,3.37014 -24.1183,6.61291 -36.2063,9.72715 -12.0884,3.11424 -24.2727,5.58773 -36.552,7.42283 -3.5816,0.53536 -8.8445,1.19242 -15.7896,1.96885 -6.9455,0.77643 -14.1854,1.33376 -21.7188,1.67499 -7.5336,0.34133 -14.7021,0.49802 -21.5062,0.46869 -6.8426,-0.28501 -11.9334,-1.09301 -15.2709,-2.42496 -3.0817,-1.37013 -6.0728,-3.01536 -8.975,-4.93547 -2.9405,-2.17578 -5.6253,-4.39136 -8.0541,-6.64373 -6.3664,-5.84832 -11.9334,-12.46933 -16.7,-19.86453 -4.7669,-7.3951 -8.8043,-15.16171 -12.1125,-23.29792 -3.3082,-8.13622 -6.1225,-16.47584 -8.4459,-25.02091 -2.0673,-8.58304 -3.7321,-17.09525 -4.9937,-25.53746 -1.5293,-10.23268 -2.6042,-20.92579 -3.225,-32.07917 -0.3649,-11.19126 -0.072,-22.35009 0.8812,-33.47708 0.9525,-11.12657 2.7293,-21.98397 5.3313,-32.57291 2.8579,-10.62671 6.7262,-20.62134 11.6042,-29.98125 1.4466,-2.56974 3.3288,-5.72851 5.6458,-9.47501 2.317,-3.74595 4.7674,-6.59632 7.3521,-8.55208 6.3335,-4.86929 13.5298,-9.21317 21.5896,-13.03333 8.3155,-3.85781 16.9815,-7.11506 26,-9.77083 8.98,-2.911 17.91,-5.29158 26.7875,-7.14167 9.0947,-2.14352 17.4794,-3.78814 25.1541,-4.93542 14.5817,-2.17896 29.2963,-3.46326 44.1459,-3.85209 3.7027,-0.16099 7.3942,-0.23934 11.0729,-0.23332 z m 264.6854,50.72083 c -1.749,-1.7e-4 -3.5348,0.0388 -5.3541,0.11458 -7.0603,0.01 -14.0632,0.40084 -21.0085,1.17708 -6.6897,0.73845 -11.6952,1.35737 -15.0208,1.85418 -1.7908,0.26785 -4.971,0.87288 -9.5374,1.81666 -4.605,0.68844 -9.445,1.54225 -14.5229,2.56249 -4.8225,0.98247 -9.3514,2.18281 -13.5855,3.6 -4.2726,1.16182 -6.9919,2.22287 -8.1562,3.18126 -2.0732,1.87925 -3.4994,4.57715 -4.2813,8.09375 -0.8204,3.26123 -1.3289,6.86694 -1.5228,10.81874 0.062,3.91397 0.253,7.80798 0.5707,11.68334 0.5352,3.58167 0.9745,6.52487 1.3188,8.82708 0.344,2.30256 1.1015,6.50288 2.2749,12.60418 1.391,5.80756 2.8581,12.12779 4.4022,18.95832 1.7614,6.53678 3.575,12.54168 5.4395,18.01667 1.8644,5.47523 3.6794,8.86542 5.4438,10.17084 2.0965,1.77903 5.6711,2.94533 10.723,3.49791 5.3075,0.51456 10.85,0.8638 16.6312,1.04583 5.9984,-0.11177 11.722,-0.31491 17.1708,-0.60625 5.4103,-0.54696 9.2684,-0.9912 11.5709,-1.33541 4.093,-0.61161 8.9329,-1.46544 14.5229,-2.56251 5.5896,-1.09681 11.1225,-2.57921 16.5979,-4.44374 5.7307,-1.90251 11.0198,-4.12989 15.8687,-6.68542 4.8486,-2.55527 8.5805,-5.59831 11.1917,-9.12708 1.523,-2.05824 2.5284,-4.95503 3.0166,-8.68958 0.4879,-3.73428 0.6811,-7.68651 0.5813,-11.85626 -0.1003,-4.16943 -0.437,-8.17295 -1.0104,-12.01041 -0.356,-4.1312 -0.7061,-7.34743 -1.05,-9.65 -0.459,-3.06967 -1.1222,-6.63243 -1.9896,-10.6875 -0.8677,-4.05471 -1.8622,-8.0894 -2.9854,-12.10625 -1.1619,-4.27228 -2.541,-8.25084 -4.1375,-11.93542 -1.6352,-3.93997 -3.4122,-7.07514 -5.3292,-9.40417 -2.5439,-3.01958 -6.8924,-4.98421 -13.0437,-5.89583 -4.6138,-0.68338 -9.5426,-1.02658 -14.7896,-1.02708 z m 226.5354,121.9375 c 3.4773,-0.0292 6.0831,0.51348 7.8187,1.62708 0.9585,1.16446 1.9053,3.11458 2.8376,5.85208 1.1497,2.44357 2.0992,5.30847 2.852,8.59586 0.7146,3.03168 1.3016,6.08224 1.7605,9.15211 0.6762,2.77579 1.131,4.93173 1.3604,6.46667 0.191,1.27904 0.4378,2.94304 0.7437,4.98954 0.3058,2.04662 0.4853,4.11104 0.5354,6.19584 0.05,2.0848 -0.048,4.06198 -0.2916,5.92918 -0.2059,2.12298 -0.6349,3.6241 -1.2876,4.50624 -0.9087,0.92042 -2.8609,1.86709 -5.854,2.83744 -2.9553,1.22634 -6.2028,2.23392 -9.746,3.02506 -3.505,1.04683 -6.9222,1.81963 -10.2479,2.3167 -3.0316,0.71456 -5.3129,1.1872 -6.8478,1.41664 -1.535,0.22933 -3.4742,0.38666 -5.8147,0.47498 -2.0466,0.30582 -4.2406,0.50336 -6.5812,0.59168 -2.3406,0.0885 -4.5908,-0.0992 -6.7521,-0.56042 -1.8673,-0.24406 -3.2609,-0.82059 -4.1812,-1.72918 -1.1763,-0.8704 -2.3579,-2.65482 -3.5458,-5.35413 -0.8941,-2.48181 -1.8276,-5.2192 -2.798,-8.21259 -0.7146,-3.03157 -1.409,-5.9345 -2.0854,-8.7104 -0.4205,-2.81397 -0.7455,-4.98794 -0.975,-6.52288 -0.4588,-3.06986 -0.7956,-7.07338 -1.0104,-12.01045 -0.2148,-4.93696 0.6763,-8.60093 2.6729,-10.99164 0.6528,-0.88211 2.3659,-1.66107 5.1417,-2.3375 2.9934,-0.97038 6.1353,-1.8325 9.4229,-2.58541 3.505,-1.04684 6.9202,-1.81961 10.2458,-2.31667 3.2874,-0.75279 5.5709,-1.22544 6.85,-1.41666 2.814,-0.42049 6.8155,-0.75737 12.0083,-1.01042 1.3527,-0.13675 2.6097,-0.20899 3.7688,-0.21875 z m -451.5187,128.62286 c 1.053,15.79659 2.8743,31.47936 5.4625,47.04587 2.5495,15.31125 4.7155,30.67872 6.4979,46.10421 l -42.8229,4.83126 c 1.0822,8.9921 2.1453,17.85568 3.1895,26.59168 1.2998,8.69802 2.6179,17.52352 3.9563,26.47701 1.6055,10.74464 3.1926,21.36149 4.7604,31.85003 1.7849,10.19477 3.6091,20.64597 5.4708,31.3521 l 39.2542,-5.08341 c 0.597,7.49536 1.4696,15.07968 2.6167,22.75424 1.1469,7.67467 2.2947,15.3504 3.4416,23.02496 0.9558,6.39552 2.0382,12.77195 3.25,19.12917 1.4672,6.31915 3.299,12.45355 5.4959,18.40214 l -137.4146,22.8896 c -1.8734,-12.53526 -3.8369,-24.79595 -5.8896,-36.78134 -2.091,-12.24106 -4.457,-24.57109 -7.0979,-36.99168 l 24.8854,-4.11242 c -4.8731,-23.8559 -9.9628,-47.4175 -15.2708,-70.68544 -5.0524,-23.30592 -10.2516,-46.7199 -15.5979,-70.24374 l -37.1438,0.84374 c -2.1173,-10.66774 -4.2146,-21.20843 -6.2937,-31.6208 -1.8617,-10.70603 -3.8514,-21.39222 -5.9688,-32.06048 27.7315,-5.1903 55.1872,-10.47136 82.3688,-15.8416 27.3991,-5.66379 55.0155,-11.62262 82.85,-17.8751 z m 359.652,1.36886 c 3.3382,0.0245 6.6087,0.25514 9.8126,0.69162 6.6627,0.8352 12.8209,2.66048 18.4728,5.47712 5.6513,2.81707 10.3431,7.08523 14.075,12.80416 4.4342,6.92203 8.3421,14.70656 11.7272,23.35414 3.3843,8.6481 6.297,17.62741 8.7353,26.93952 2.6934,9.27445 4.8552,18.4977 6.4876,27.6688 1.8877,9.13322 3.4248,17.6656 4.6104,25.59584 1.6053,10.74464 2.9354,21.39957 3.9916,31.96458 1.2732,10.27115 2.1824,20.72726 2.7271,31.36875 -10.6684,2.11755 -20.9338,4.30613 -30.7958,6.56459 -9.645,1.96458 -19.6867,4.7728 -30.125,8.42496 0.3167,-18.87776 -0.9198,-37.65408 -3.7105,-56.32918 -0.4974,-3.32544 -1.5929,-8.91669 -3.2895,-16.77077 -1.7353,-8.10965 -3.7647,-16.43616 -6.0875,-24.98123 -2.1059,-8.83893 -4.4818,-16.85418 -7.1251,-24.04384 -2.3881,-7.22741 -4.6486,-11.85877 -6.7832,-13.89365 -1.5087,-1.34357 -3.6003,-2.2064 -6.273,-2.59168 -2.6733,-0.38496 -5.4355,-0.49579 -8.2874,-0.33131 -2.8907,-0.0907 -5.7425,0.0736 -8.5563,0.49376 -2.8525,0.16502 -5.1741,0.38262 -6.9646,0.65003 -3.0701,0.45899 -6.7603,1.14027 -11.0708,2.04587 -4.0552,0.86773 -8.1994,2.00981 -12.4334,3.42698 -4.2728,1.16182 -8.3606,2.68864 -12.2624,4.5792 -3.6464,1.8528 -6.6139,3.86464 -8.9042,6.03755 -1.1263,1.21461 -1.8769,4.07328 -2.25,8.57493 -0.1178,4.4639 0.028,9.80491 0.4333,16.02091 0.4058,6.21632 0.8868,12.944 1.4458,20.18325 0.8145,7.20139 1.5728,14.01856 2.273,20.45216 0.6616,6.17803 1.3546,11.69782 2.0812,16.5583 0.688,4.6049 1.1294,7.54602 1.3209,8.82496 2.5232,16.88426 5.4296,33.71189 8.7207,50.48128 -7.3809,1.36458 -14.6338,2.70912 -21.7583,4.03541 -6.8691,1.28821 -14.0126,2.48715 -21.4312,3.59584 -0.7677,0.11477 -1.7919,0.2672 -3.0708,0.45835 -1.2793,0.19125 -2.5767,0.25429 -3.8938,0.18954 -1.5351,0.22944 -3.0896,0.33067 -4.6625,0.30422 l -4.1875,-28.01248 c -1.1854,-7.93035 -2.5347,-16.09611 -4.0521,-24.50006 -1.5175,-8.40373 -2.8821,-15.78421 -4.0937,-22.14165 -0.9058,-4.31061 -2.1313,-9.88171 -3.675,-16.71253 -1.5441,-6.83051 -3.6891,-13.30944 -6.4354,-19.43744 -2.785,-6.38358 -6.3138,-11.61163 -10.5834,-15.68128 -4.0522,-4.36342 -9.1478,-6.08619 -15.2875,-5.16875 -2.814,0.4208 -6.5737,1.50677 -11.2812,3.25621 -4.4902,1.4559 -9.1798,3.33184 -14.0667,5.63126 -4.6696,2.00576 -9.0256,4.35786 -13.0687,7.05418 -3.8255,2.40267 -6.4798,4.76096 -7.9646,7.07499 -0.4352,0.58827 -0.6355,3.62581 -0.6,9.11253 0.253,5.19307 0.6979,11.66571 1.3333,19.41664 0.5971,7.49536 1.1792,15.77547 1.75,24.84374 0.7883,8.7745 1.5,17.03861 2.1354,24.78965 0.8911,7.71285 1.5016,14.42048 1.8312,20.12501 0.547,5.41046 0.897,8.6288 1.0501,9.65206 -5.0401,1.27637 -10.2084,2.57088 -15.5041,3.88544 -5.0782,1.02048 -10.1753,1.91242 -15.2918,2.67701 -4.8606,0.72651 -9.7388,1.32533 -14.6375,1.79584 -4.8988,0.47072 -9.6895,0.79435 -14.3708,0.97088 -6.1346,-32.29803 -12.8508,-64.1168 -20.15,-95.45621 -7.0431,-31.3776 -14.4013,-63.09995 -22.0708,-95.16886 7.0482,-1.83765 13.9881,-3.52874 20.8187,-5.07285 7.0484,-1.83776 14.1536,-3.29173 21.3167,-4.36256 6.9071,-1.032 13.8337,-1.93781 20.7792,-2.71456 6.9453,-0.77621 14.0196,-1.57045 21.2208,-2.38539 l -0.057,33.74582 c 10.3531,-11.22379 20.5562,-19.94134 30.6125,-26.15211 10.312,-6.24853 23.0147,-10.50027 38.1084,-12.75627 5.8836,-0.87904 11.1153,-0.87648 15.6937,0.0107 4.7958,0.59115 9.1756,1.89813 13.1396,3.92075 4.1812,1.72917 8.311,3.98901 12.3896,6.7792 4.0784,2.79061 8.452,5.79754 13.1187,9.02293 3.5341,-7.85088 7.936,-14.26272 13.2084,-19.23541 5.4894,-5.26624 11.5159,-9.56715 18.0791,-12.90208 6.5629,-3.3344 13.6453,-5.83072 21.2437,-7.4896 7.5597,-1.91414 15.1752,-3.44438 22.8501,-4.59168 6.1394,-0.91734 12.5739,-1.61728 19.302,-2.09995 3.4726,-0.38816 6.8785,-0.57003 10.2167,-0.54581 z"
         style="fill:#000000;fill-opacity:1;stroke-width:1.06666672" />
    </g>
    <g
       transform="rotate(-8.5)"
       style="font-style:normal;font-weight:normal;font-size:372.47290039px;line-height:125%;font-family:Sans;letter-spacing:0px;word-spacing:0px;fill:#ffffff;fill-opacity:1;stroke:none"
       id="text3072" />
    <g
       transform="rotate(-8.5)"
       style="font-style:normal;font-weight:normal;font-size:372.47290039px;line-height:125%;font-family:Sans;letter-spacing:0px;word-spacing:0px;fill:#ffffff;fill-opacity:1;stroke:none"
       id="text3084" />
  </g>
</svg>
